<svg width="16" height="16" viewBox="0 0 16 16" fill="none" xmlns="http://www.w3.org/2000/svg">
<path fill-rule="evenodd" clip-rule="evenodd" d="M3 0C1.89545 0 1 0.895508 1 2V14C1 15.1045 1.89545 16 3 16H13C14.1046 16 15 15.1045 15 14V2C15 0.895508 14.1046 0 13 0H3ZM13 2H3V14H13V2ZM4 5C4 4.44775 4.44775 4 5 4H11C11.5522 4 12 4.44775 12 5C12 5.55225 11.5522 6 11 6H5C4.44775 6 4 5.55225 4 5ZM5 7C4.44775 7 4 7.44775 4 8C4 8.55225 4.44775 9 5 9H11C11.5522 9 12 8.55225 12 8C12 7.44775 11.5522 7 11 7H5ZM5 10C4.44775 10 4 10.4478 4 11C4 11.5522 4.44775 12 5 12H7C7.55225 12 8 11.5522 8 11C8 10.4478 7.55225 10 7 10H5Z" fill="#553C8B"/>
</svg>
