<?xml version="1.0" encoding="utf-8"?>
<svg viewBox="0 0 170 72" width="170px" height="72px" fill="none" xmlns="http://www.w3.org/2000/svg">
  <path d="M 19.252 29.873 L 41.873 29.873 L 41.873 7.252 L 19.252 7.252 L 19.252 29.873 Z M 43.125 31.125 L 18 31.125 L 18 6 L 43.125 6 L 43.125 31.125 Z" style="fill: rgb(255, 255, 255);"/>
  <path d="M 155.749 49.363 L 104.539 49.363 L 19.273 49.363 L 19.273 36.154 L 155.749 36.154 L 155.749 49.363 Z M 103.287 63.825 L 19.273 63.825 L 19.273 50.615 L 103.287 50.615 L 103.287 63.825 Z M 48.05 7.252 L 91.872 7.252 L 91.872 21.088 L 48.05 21.088 L 48.05 7.252 Z M 95.67 28.162 L 97.256 25.302 L 98.988 25.302 L 97.006 28.662 L 99.113 32.356 L 97.235 32.356 L 95.649 29.518 L 94.627 29.518 L 94.627 32.356 L 93.02 32.356 L 93.02 29.518 L 91.976 29.518 L 90.39 32.356 L 88.512 32.356 L 90.62 28.662 L 88.638 25.302 L 90.37 25.302 L 91.956 28.162 L 93.04 28.162 L 93.04 25.302 L 94.648 25.302 L 94.648 28.162 L 95.67 28.162 Z M 102.681 25.302 L 104.288 25.302 L 107.44 32.356 L 105.728 32.356 L 105.102 30.853 L 101.826 30.853 L 101.2 32.356 L 99.531 32.356 L 102.681 25.302 Z M 108.232 25.302 L 109.86 25.302 L 109.86 28.078 L 110.799 28.078 C 110.904 27.515 111.133 27.014 111.467 26.576 C 111.801 26.138 112.239 25.804 112.761 25.553 C 113.282 25.302 113.846 25.198 114.472 25.198 C 115.181 25.198 115.807 25.366 116.371 25.678 C 116.935 25.992 117.393 26.43 117.707 26.972 C 118.019 27.536 118.187 28.141 118.187 28.85 C 118.187 29.56 118.019 30.165 117.707 30.729 C 117.393 31.291 116.935 31.709 116.371 32.043 C 115.807 32.356 115.161 32.523 114.472 32.523 C 113.846 32.523 113.262 32.397 112.74 32.147 C 112.218 31.897 111.78 31.542 111.446 31.083 C 111.112 30.624 110.882 30.102 110.799 29.518 L 109.881 29.518 L 109.881 32.397 L 108.254 32.397 L 108.254 25.302 L 108.232 25.302 Z M 119.23 25.302 L 120.857 25.302 L 120.857 31.021 L 123.069 31.021 L 123.069 25.302 L 124.697 25.302 L 124.697 31.021 L 126.888 31.021 L 126.909 31.021 L 126.909 25.302 L 128.537 25.302 L 128.537 31.021 L 129.497 31.021 L 129.497 33.817 L 127.994 33.817 L 127.994 32.356 L 126.888 32.356 L 119.23 32.356 L 119.23 25.302 Z M 130.415 25.302 L 135.737 25.302 L 135.737 26.618 L 132.043 26.618 L 132.043 28.141 L 135.319 28.141 L 135.319 29.414 L 132.043 29.414 L 132.043 31.041 L 135.883 31.041 L 135.883 32.356 L 130.415 32.356 L 130.415 25.302 Z M 137.051 25.302 L 138.679 25.302 L 138.679 29.894 L 142.038 25.302 L 143.562 25.302 L 143.562 32.356 L 141.955 32.356 L 141.955 27.765 L 138.595 32.356 L 137.051 32.356 L 137.051 25.302 Z M 139.471 23.32 C 139.492 23.8 139.764 24.05 140.306 24.05 C 140.578 24.05 140.786 23.988 140.911 23.861 C 141.058 23.738 141.12 23.55 141.141 23.32 L 142.268 23.32 C 142.268 23.821 142.101 24.196 141.767 24.468 C 141.454 24.74 140.953 24.864 140.306 24.864 C 139.012 24.864 138.365 24.342 138.345 23.32 L 139.471 23.32 Z M 87.323 28.162 L 87.323 29.435 L 84.047 29.435 L 84.047 31.062 L 87.886 31.062 L 87.886 32.377 L 82.419 32.377 L 82.419 25.302 L 87.74 25.302 L 87.74 26.618 L 84.047 26.618 L 84.047 28.141 L 87.323 28.141 L 87.323 28.162 Z M 75.408 32.356 L 75.408 25.302 L 78.454 25.302 C 79.08 25.302 79.623 25.407 80.082 25.616 C 80.541 25.824 80.895 26.116 81.146 26.492 C 81.397 26.868 81.521 27.327 81.521 27.849 C 81.521 28.37 81.397 28.809 81.146 29.205 C 80.895 29.601 80.541 29.894 80.082 30.081 C 79.623 30.29 79.08 30.394 78.454 30.394 L 77.035 30.394 L 77.035 32.335 L 75.408 32.335 L 75.408 32.356 Z M 73.696 28.162 L 73.696 29.435 L 70.42 29.435 L 70.42 31.062 L 74.26 31.062 L 74.26 32.377 L 68.792 32.377 L 68.792 25.302 L 74.114 25.302 L 74.114 26.618 L 70.399 26.618 L 70.399 28.141 L 73.696 28.141 L 73.696 28.162 Z M 62.469 26.638 L 62.469 32.356 L 60.842 32.356 L 60.842 25.302 L 67.269 25.302 L 67.269 32.356 L 65.641 32.356 L 65.641 26.638 L 62.469 26.638 Z M 52.077 28.829 C 52.077 28.141 52.244 27.515 52.578 26.951 C 52.912 26.388 53.371 25.97 53.956 25.658 C 54.54 25.344 55.208 25.178 55.938 25.178 C 56.668 25.178 57.336 25.344 57.92 25.658 C 58.504 25.97 58.964 26.409 59.298 26.951 C 59.632 27.515 59.798 28.12 59.798 28.829 C 59.798 29.539 59.632 30.144 59.298 30.707 C 58.964 31.271 58.504 31.689 57.92 32.022 C 57.336 32.335 56.668 32.502 55.938 32.502 C 55.208 32.502 54.54 32.335 53.956 32.022 C 53.371 31.709 52.912 31.271 52.578 30.707 C 52.244 30.144 52.077 29.539 52.077 28.829 Z M 157 34.902 L 148.674 34.902 L 148.674 21.088 L 93.124 21.088 L 93.124 6 L 46.797 6 L 46.839 21.714 L 46.839 34.902 L 18.021 34.902 L 18.021 49.363 L 18.021 50.615 L 18.021 65.077 L 104.539 65.077 L 104.539 50.615 L 157 50.615 L 157 34.902 Z" style="fill: rgb(255, 255, 255);"/>
  <path d="M 79.497 28.767 C 79.747 28.558 79.873 28.245 79.873 27.869 C 79.873 27.473 79.747 27.16 79.497 26.951 C 79.247 26.742 78.871 26.638 78.37 26.638 L 77.035 26.638 L 77.035 29.079 L 78.37 29.079 C 78.871 29.079 79.247 28.975 79.497 28.767 Z" style="fill: rgb(255, 255, 255);"/>
  <path d="M 103.474 26.91 L 102.347 29.622 L 104.601 29.622 L 103.474 26.91 Z" style="fill: rgb(255, 255, 255);"/>
  <path d="M 54.811 30.811 C 55.144 30.999 55.52 31.103 55.938 31.103 C 56.355 31.103 56.73 30.999 57.064 30.811 C 57.398 30.623 57.67 30.353 57.857 30.019 C 58.045 29.685 58.15 29.289 58.15 28.85 C 58.15 28.412 58.045 28.015 57.857 27.681 C 57.67 27.348 57.398 27.076 57.064 26.889 C 56.73 26.701 56.355 26.596 55.938 26.596 C 55.52 26.596 55.144 26.701 54.811 26.889 C 54.477 27.076 54.206 27.348 54.018 27.681 C 53.83 28.015 53.726 28.412 53.726 28.85 C 53.726 29.289 53.83 29.685 54.018 30.019 C 54.206 30.353 54.477 30.623 54.811 30.811 Z" style="fill: rgb(255, 255, 255);"/>
  <path d="M 113.407 30.811 C 113.721 30.999 114.075 31.103 114.471 31.103 C 114.868 31.103 115.223 30.999 115.536 30.811 C 115.849 30.623 116.099 30.353 116.287 30.019 C 116.475 29.685 116.558 29.289 116.558 28.85 C 116.558 28.412 116.475 28.015 116.287 27.681 C 116.099 27.348 115.849 27.076 115.536 26.889 C 115.223 26.701 114.868 26.596 114.471 26.596 C 114.075 26.596 113.721 26.701 113.407 26.889 C 113.095 27.076 112.843 27.348 112.656 27.681 C 112.469 28.015 112.385 28.412 112.385 28.85 C 112.385 29.289 112.469 29.685 112.656 30.019 C 112.843 30.353 113.095 30.623 113.407 30.811 Z" style="fill: rgb(255, 255, 255);"/>
  <path d="M 30.229 39.535 L 30.229 46.588 L 28.601 46.588 L 28.601 40.849 L 25.429 40.849 L 25.429 46.588 L 23.801 46.588 L 23.801 39.535 L 30.229 39.535 Z" style="fill: rgb(255, 255, 255);"/>
  <path d="M 36.009 42.978 C 36.26 42.769 36.384 42.456 36.384 42.08 C 36.384 41.684 36.26 41.371 36.009 41.162 C 35.758 40.954 35.382 40.849 34.882 40.849 L 33.546 40.849 L 33.546 43.291 L 34.882 43.291 C 35.382 43.312 35.758 43.208 36.009 42.978 Z M 36.614 39.848 C 37.074 40.056 37.428 40.348 37.678 40.724 C 37.929 41.1 38.054 41.558 38.054 42.08 C 38.054 42.602 37.929 43.04 37.678 43.437 C 37.428 43.834 37.074 44.126 36.614 44.314 C 36.155 44.522 35.612 44.626 34.986 44.626 L 33.568 44.626 L 33.568 46.567 L 31.94 46.567 L 31.94 39.514 L 34.986 39.514 C 35.612 39.534 36.155 39.639 36.614 39.848 Z" style="fill: rgb(255, 255, 255);"/>
  <path d="M 43.876 45.023 C 44.21 44.835 44.481 44.564 44.669 44.23 C 44.857 43.896 44.961 43.5 44.961 43.062 C 44.961 42.623 44.857 42.226 44.669 41.892 C 44.481 41.558 44.21 41.288 43.876 41.1 C 43.542 40.912 43.167 40.808 42.749 40.808 C 42.331 40.808 41.956 40.912 41.622 41.1 C 41.289 41.288 41.017 41.558 40.829 41.892 C 40.641 42.226 40.537 42.623 40.537 43.062 C 40.537 43.5 40.641 43.896 40.829 44.23 C 41.017 44.564 41.289 44.835 41.622 45.023 C 41.956 45.21 42.331 45.315 42.749 45.315 C 43.167 45.315 43.542 45.21 43.876 45.023 Z M 40.767 46.233 C 40.182 45.92 39.723 45.482 39.389 44.918 C 39.055 44.355 38.889 43.75 38.889 43.04 C 38.889 42.352 39.055 41.726 39.389 41.162 C 39.723 40.598 40.182 40.182 40.767 39.848 C 41.351 39.534 42.019 39.368 42.749 39.368 C 43.479 39.368 44.147 39.534 44.731 39.848 C 45.316 40.16 45.775 40.598 46.109 41.162 C 46.443 41.726 46.61 42.331 46.61 43.04 C 46.61 43.729 46.443 44.355 46.109 44.918 C 45.775 45.482 45.316 45.899 44.731 46.233 C 44.147 46.546 43.479 46.713 42.749 46.713 C 42.019 46.692 41.372 46.546 40.767 46.233 Z" style="fill: rgb(255, 255, 255);"/>
  <path d="M 54.289 44.292 C 54.644 44 54.811 43.562 54.811 43.02 C 54.811 41.956 54.102 41.35 52.703 41.224 L 52.703 44.835 C 53.413 44.772 53.935 44.606 54.289 44.292 Z M 51.201 44.856 L 51.201 41.246 C 50.491 41.308 49.949 41.496 49.595 41.788 C 49.239 42.08 49.073 42.498 49.073 43.062 C 49.073 44.084 49.782 44.689 51.201 44.856 Z M 55.437 45.232 C 54.811 45.774 53.893 46.066 52.703 46.129 L 52.703 46.901 L 51.201 46.901 L 51.201 46.129 C 50.011 46.066 49.093 45.753 48.447 45.232 C 47.821 44.689 47.487 43.98 47.487 43.04 C 47.487 42.122 47.799 41.392 48.447 40.849 C 49.073 40.328 49.991 40.014 51.201 39.952 L 51.201 39.222 L 52.703 39.222 L 52.703 39.931 C 53.893 39.994 54.811 40.306 55.437 40.828 C 56.063 41.371 56.397 42.102 56.397 43.02 C 56.376 43.958 56.063 44.71 55.437 45.232 Z" style="fill: rgb(255, 255, 255);"/>
  <path d="M 63.011 45.274 L 63.011 46.588 L 57.566 46.588 L 57.566 39.535 L 62.887 39.535 L 62.887 40.828 L 59.193 40.828 L 59.193 42.372 L 62.449 42.372 L 62.449 43.646 L 59.193 43.646 L 59.193 45.274 L 63.011 45.274 Z" style="fill: rgb(255, 255, 255);"/>
  <path d="M 65.662 46.233 C 65.078 45.92 64.618 45.482 64.284 44.94 C 63.95 44.376 63.784 43.75 63.784 43.062 C 63.784 42.372 63.95 41.746 64.284 41.183 C 64.618 40.62 65.078 40.202 65.662 39.889 C 66.246 39.576 66.893 39.429 67.624 39.429 C 68.228 39.429 68.792 39.535 69.272 39.743 C 69.772 39.952 70.19 40.265 70.524 40.662 L 69.48 41.622 C 69 41.079 68.416 40.786 67.706 40.786 C 67.268 40.786 66.872 40.891 66.538 41.079 C 66.204 41.266 65.933 41.538 65.745 41.872 C 65.558 42.206 65.453 42.602 65.453 43.04 C 65.453 43.478 65.558 43.876 65.745 44.209 C 65.933 44.543 66.204 44.814 66.538 45.002 C 66.872 45.19 67.268 45.294 67.706 45.294 C 68.416 45.294 69 45.023 69.48 44.46 L 70.524 45.42 C 70.19 45.837 69.772 46.15 69.272 46.358 C 68.771 46.567 68.228 46.672 67.602 46.672 C 66.893 46.692 66.246 46.546 65.662 46.233 Z" style="fill: rgb(255, 255, 255);"/>
  <path d="M 72.84 46.233 C 72.256 45.92 71.797 45.482 71.463 44.94 C 71.129 44.376 70.962 43.75 70.962 43.062 C 70.962 42.372 71.129 41.746 71.463 41.183 C 71.797 40.62 72.256 40.202 72.84 39.889 C 73.425 39.576 74.071 39.429 74.801 39.429 C 75.407 39.429 75.971 39.535 76.451 39.743 C 76.951 39.952 77.369 40.265 77.703 40.662 L 76.659 41.622 C 76.179 41.079 75.595 40.786 74.885 40.786 C 74.447 40.786 74.051 40.891 73.717 41.079 C 73.383 41.266 73.111 41.538 72.924 41.872 C 72.736 42.206 72.631 42.602 72.631 43.04 C 72.631 43.478 72.736 43.876 72.924 44.209 C 73.111 44.543 73.383 44.814 73.717 45.002 C 74.051 45.19 74.447 45.294 74.885 45.294 C 75.595 45.294 76.179 45.023 76.659 44.46 L 77.703 45.42 C 77.369 45.837 76.951 46.15 76.451 46.358 C 75.949 46.567 75.407 46.672 74.781 46.672 C 74.071 46.692 73.425 46.546 72.84 46.233 Z" style="fill: rgb(255, 255, 255);"/>
  <path d="M 78.746 39.535 L 80.373 39.535 L 80.373 44.126 L 83.733 39.535 L 85.257 39.535 L 85.257 46.588 L 83.65 46.588 L 83.65 41.997 L 80.291 46.588 L 78.746 46.588 L 78.746 39.535 Z" style="fill: rgb(255, 255, 255);"/>
  <path d="M 91.518 45.023 C 91.852 44.835 92.122 44.564 92.31 44.23 C 92.498 43.896 92.602 43.5 92.602 43.062 C 92.602 42.623 92.498 42.226 92.31 41.892 C 92.122 41.558 91.852 41.288 91.518 41.1 C 91.183 40.912 90.808 40.808 90.39 40.808 C 89.973 40.808 89.598 40.912 89.264 41.1 C 88.93 41.288 88.658 41.558 88.471 41.892 C 88.283 42.226 88.179 42.623 88.179 43.062 C 88.179 43.5 88.283 43.896 88.471 44.23 C 88.658 44.564 88.93 44.835 89.264 45.023 C 89.598 45.21 89.973 45.315 90.39 45.315 C 90.808 45.315 91.183 45.21 91.518 45.023 Z M 88.408 46.233 C 87.824 45.92 87.365 45.482 87.031 44.918 C 86.697 44.355 86.53 43.75 86.53 43.04 C 86.53 42.352 86.697 41.726 87.031 41.162 C 87.365 40.598 87.824 40.182 88.408 39.848 C 88.992 39.534 89.66 39.368 90.39 39.368 C 91.121 39.368 91.788 39.534 92.373 39.848 C 92.958 40.16 93.416 40.598 93.75 41.162 C 94.084 41.726 94.251 42.331 94.251 43.04 C 94.251 43.729 94.084 44.355 93.75 44.918 C 93.416 45.482 92.958 45.899 92.373 46.233 C 91.788 46.546 91.121 46.713 90.39 46.713 C 89.66 46.692 88.992 46.546 88.408 46.233 Z" style="fill: rgb(255, 255, 255);"/>
  <path d="M 101.972 39.535 L 101.972 46.588 L 100.344 46.588 L 100.344 43.688 L 97.131 43.688 L 97.131 46.588 L 95.503 46.588 L 95.503 39.535 L 97.131 39.535 L 97.131 42.31 L 100.344 42.31 L 100.344 39.535 L 101.972 39.535 Z" style="fill: rgb(255, 255, 255);"/>
  <path d="M 108.024 43.834 L 106.896 41.142 L 105.77 43.834 L 108.024 43.834 Z M 108.546 45.064 L 105.269 45.064 L 104.643 46.567 L 102.974 46.567 L 106.124 39.514 L 107.732 39.514 L 110.882 46.567 L 109.171 46.567 L 108.546 45.064 Z" style="fill: rgb(255, 255, 255);"/>
  <path d="M 118.541 39.535 L 118.541 46.588 L 116.934 46.588 L 116.934 40.87 L 114.513 40.87 L 114.471 42.331 C 114.43 43.332 114.367 44.146 114.221 44.772 C 114.096 45.398 113.887 45.878 113.575 46.212 C 113.282 46.546 112.865 46.713 112.322 46.713 C 112.093 46.713 111.842 46.672 111.509 46.609 L 111.613 45.232 C 111.696 45.252 111.801 45.274 111.905 45.274 C 112.301 45.274 112.573 45.044 112.719 44.584 C 112.865 44.126 112.969 43.396 113.011 42.414 L 113.115 39.556 L 118.541 39.556 L 118.541 39.535 Z" style="fill: rgb(255, 255, 255);"/>
  <path d="M 124.342 45.064 C 124.572 44.856 124.697 44.564 124.697 44.168 C 124.697 43.437 124.238 43.062 123.34 43.062 L 121.88 43.062 L 121.88 45.378 L 123.34 45.378 C 123.758 45.378 124.092 45.274 124.342 45.064 Z M 125.636 42.414 C 126.095 42.79 126.324 43.374 126.324 44.126 C 126.324 44.918 126.074 45.524 125.573 45.962 C 125.072 46.379 124.363 46.588 123.424 46.588 L 120.231 46.588 L 120.231 39.535 L 121.858 39.535 L 121.858 41.851 L 123.654 41.851 C 124.53 41.851 125.177 42.039 125.636 42.414 Z" style="fill: rgb(255, 255, 255);"/>
  <path d="M 133.9 39.535 L 133.9 46.588 L 132.272 46.588 L 132.272 43.688 L 129.08 43.688 L 129.08 46.588 L 127.452 46.588 L 127.452 39.535 L 129.08 39.535 L 129.08 42.31 L 132.272 42.31 L 132.272 39.535 L 133.9 39.535 Z" style="fill: rgb(255, 255, 255);"/>
  <path d="M 140.16 45.023 C 140.494 44.835 140.765 44.564 140.953 44.23 C 141.14 43.896 141.245 43.5 141.245 43.062 C 141.245 42.623 141.14 42.226 140.953 41.892 C 140.765 41.558 140.494 41.288 140.16 41.1 C 139.826 40.912 139.45 40.808 139.033 40.808 C 138.616 40.808 138.24 40.912 137.906 41.1 C 137.572 41.288 137.301 41.558 137.113 41.892 C 136.925 42.226 136.821 42.623 136.821 43.062 C 136.821 43.5 136.925 43.896 137.113 44.23 C 137.301 44.564 137.572 44.835 137.906 45.023 C 138.24 45.21 138.616 45.315 139.033 45.315 C 139.45 45.315 139.826 45.21 140.16 45.023 Z M 137.051 46.233 C 136.467 45.92 136.007 45.482 135.673 44.918 C 135.339 44.355 135.173 43.75 135.173 43.04 C 135.173 42.352 135.339 41.726 135.673 41.162 C 136.007 40.598 136.467 40.182 137.051 39.848 C 137.635 39.534 138.303 39.368 139.033 39.368 C 139.764 39.368 140.431 39.534 141.016 39.848 C 141.6 40.16 142.059 40.598 142.392 41.162 C 142.726 41.726 142.894 42.331 142.894 43.04 C 142.894 43.729 142.726 44.355 142.392 44.918 C 142.059 45.482 141.6 45.899 141.016 46.233 C 140.431 46.546 139.764 46.713 139.033 46.713 C 138.303 46.692 137.656 46.546 137.051 46.233 Z" style="fill: rgb(255, 255, 255);"/>
  <path d="M 145.46 37.531 L 146.587 37.531 C 146.607 38.011 146.879 38.262 147.421 38.262 C 147.693 38.262 147.901 38.199 148.027 38.074 C 148.172 37.948 148.235 37.76 148.257 37.531 L 149.383 37.531 C 149.383 38.032 149.217 38.408 148.883 38.679 C 148.569 38.95 148.069 39.076 147.421 39.076 C 146.127 39.076 145.481 38.554 145.46 37.531 Z M 144.166 39.534 L 145.794 39.534 L 145.794 44.125 L 149.153 39.534 L 150.677 39.534 L 150.677 46.588 L 149.07 46.588 L 149.07 41.997 L 145.711 46.588 L 144.166 46.588 L 144.166 39.534 Z" style="fill: rgb(255, 255, 255);"/>
  <path d="M 30.229 53.85 L 30.229 60.904 L 28.601 60.904 L 28.601 55.185 L 25.429 55.185 L 25.429 60.904 L 23.801 60.904 L 23.801 53.85 L 30.229 53.85 Z" style="fill: rgb(255, 255, 255);"/>
  <path d="M 36.384 59.338 C 36.718 59.15 36.989 58.879 37.177 58.545 C 37.365 58.211 37.469 57.814 37.469 57.376 C 37.469 56.938 37.365 56.542 37.177 56.208 C 36.989 55.874 36.718 55.602 36.384 55.414 C 36.05 55.227 35.675 55.123 35.257 55.123 C 34.84 55.123 34.464 55.227 34.13 55.414 C 33.796 55.602 33.525 55.874 33.338 56.208 C 33.15 56.542 33.046 56.938 33.046 57.376 C 33.046 57.814 33.15 58.211 33.338 58.545 C 33.525 58.879 33.796 59.15 34.13 59.338 C 34.464 59.526 34.84 59.63 35.257 59.63 C 35.654 59.63 36.029 59.526 36.384 59.338 Z M 33.275 60.548 C 32.69 60.236 32.232 59.797 31.898 59.234 C 31.564 58.67 31.396 58.065 31.396 57.356 C 31.396 56.667 31.564 56.041 31.898 55.478 C 32.232 54.914 32.69 54.497 33.275 54.163 C 33.859 53.85 34.527 53.683 35.257 53.683 C 35.988 53.683 36.655 53.85 37.24 54.163 C 37.824 54.476 38.283 54.914 38.617 55.478 C 38.951 56.041 39.117 56.646 39.117 57.356 C 39.117 58.044 38.951 58.67 38.617 59.234 C 38.283 59.797 37.824 60.214 37.24 60.548 C 36.655 60.862 35.988 61.028 35.257 61.028 C 34.506 61.028 33.859 60.862 33.275 60.548 Z" style="fill: rgb(255, 255, 255);"/>
  <path d="M 42.228 58.316 C 42.124 58.879 41.956 59.296 41.727 59.568 L 44.878 59.568 L 44.878 55.185 L 42.458 55.185 L 42.436 56.208 C 42.416 57.043 42.332 57.752 42.228 58.316 Z M 47.487 59.568 L 47.487 62.364 L 45.984 62.364 L 45.984 60.904 L 41.018 60.904 L 41.018 62.364 L 39.515 62.364 L 39.515 59.568 L 39.807 59.568 C 40.224 59.546 40.538 59.254 40.704 58.65 C 40.872 58.044 40.996 57.189 41.018 56.062 L 41.101 53.85 L 46.527 53.85 L 46.527 59.568 L 47.487 59.568 Z" style="fill: rgb(255, 255, 255);"/>
  <path d="M 53.476 55.185 L 50.116 55.185 L 50.136 60.904 L 48.509 60.904 L 48.509 53.85 L 53.476 53.85 L 53.476 55.185 Z" style="fill: rgb(255, 255, 255);"/>
  <path d="M 58.838 59.338 C 59.172 59.15 59.444 58.879 59.632 58.545 C 59.819 58.211 59.924 57.814 59.924 57.376 C 59.924 56.938 59.819 56.542 59.632 56.208 C 59.444 55.874 59.172 55.602 58.838 55.414 C 58.504 55.227 58.129 55.123 57.712 55.123 C 57.294 55.123 56.918 55.227 56.584 55.414 C 56.251 55.602 55.98 55.874 55.792 56.208 C 55.604 56.542 55.5 56.938 55.5 57.376 C 55.5 57.814 55.604 58.211 55.792 58.545 C 55.98 58.879 56.251 59.15 56.584 59.338 C 56.918 59.526 57.294 59.63 57.712 59.63 C 58.129 59.63 58.504 59.526 58.838 59.338 Z M 55.729 60.548 C 55.145 60.236 54.686 59.797 54.352 59.234 C 54.018 58.67 53.851 58.065 53.851 57.356 C 53.851 56.667 54.018 56.041 54.352 55.478 C 54.686 54.914 55.145 54.497 55.729 54.163 C 56.314 53.85 56.982 53.683 57.712 53.683 C 58.442 53.683 59.11 53.85 59.694 54.163 C 60.278 54.476 60.738 54.914 61.071 55.478 C 61.405 56.041 61.572 56.646 61.572 57.356 C 61.572 58.044 61.405 58.67 61.071 59.234 C 60.738 59.797 60.278 60.214 59.694 60.548 C 59.11 60.862 58.442 61.028 57.712 61.028 C 56.982 61.028 56.334 60.862 55.729 60.548 Z" style="fill: rgb(255, 255, 255);"/>
  <path d="M 68.083 55.185 L 65.829 55.185 L 65.829 60.904 L 64.201 60.904 L 64.201 55.185 L 61.969 55.185 L 61.969 53.85 L 68.083 53.85 L 68.083 55.185 Z" style="fill: rgb(255, 255, 255);"/>
  <path d="M 73.466 59.338 C 73.8 59.15 74.072 58.879 74.26 58.545 C 74.448 58.211 74.552 57.814 74.552 57.376 C 74.552 56.938 74.448 56.542 74.26 56.208 C 74.072 55.874 73.8 55.602 73.466 55.414 C 73.133 55.227 72.758 55.123 72.34 55.123 C 71.922 55.123 71.547 55.227 71.213 55.414 C 70.879 55.602 70.608 55.874 70.42 56.208 C 70.232 56.542 70.128 56.938 70.128 57.376 C 70.128 57.814 70.232 58.211 70.42 58.545 C 70.608 58.879 70.879 59.15 71.213 59.338 C 71.547 59.526 71.922 59.63 72.34 59.63 C 72.758 59.63 73.133 59.526 73.466 59.338 Z M 70.358 60.548 C 69.773 60.236 69.314 59.797 68.98 59.234 C 68.647 58.67 68.479 58.065 68.479 57.356 C 68.479 56.667 68.647 56.041 68.98 55.478 C 69.314 54.914 69.773 54.497 70.358 54.163 C 70.942 53.85 71.61 53.683 72.34 53.683 C 73.07 53.683 73.738 53.85 74.322 54.163 C 74.906 54.476 75.366 54.914 75.7 55.478 C 76.034 56.041 76.2 56.646 76.2 57.356 C 76.2 58.044 76.034 58.67 75.7 59.234 C 75.366 59.797 74.906 60.214 74.322 60.548 C 73.738 60.862 73.07 61.028 72.34 61.028 C 71.589 61.028 70.942 60.862 70.358 60.548 Z" style="fill: rgb(255, 255, 255);"/>
  <path d="M 81.918 58.774 C 81.918 58.19 81.542 57.898 80.77 57.898 L 78.975 57.898 L 78.975 59.672 L 80.77 59.672 C 81.521 59.692 81.918 59.38 81.918 58.774 Z M 78.975 56.771 L 80.499 56.771 C 80.853 56.771 81.125 56.708 81.313 56.562 C 81.5 56.416 81.584 56.208 81.584 55.916 C 81.584 55.644 81.5 55.436 81.313 55.29 C 81.125 55.144 80.853 55.06 80.52 55.06 L 78.997 55.06 L 78.997 56.771 L 78.975 56.771 Z M 83.212 57.836 C 83.441 58.128 83.546 58.482 83.546 58.9 C 83.546 59.526 83.316 60.006 82.836 60.36 C 82.356 60.715 81.688 60.882 80.812 60.882 L 77.327 60.882 L 77.327 53.829 L 80.603 53.829 C 81.417 53.829 82.064 53.996 82.523 54.309 C 82.982 54.622 83.212 55.081 83.212 55.665 C 83.212 56.02 83.128 56.312 82.94 56.584 C 82.773 56.854 82.523 57.064 82.21 57.21 C 82.669 57.356 83.003 57.564 83.212 57.836 Z" style="fill: rgb(255, 255, 255);"/>
  <path d="M 87.511 58.065 L 86.384 58.065 L 86.384 60.904 L 84.756 60.904 L 84.756 53.85 L 86.384 53.85 L 86.384 56.688 L 87.552 56.688 L 89.389 53.85 L 91.121 53.85 L 88.804 57.251 L 91.183 60.904 L 89.347 60.904 L 87.511 58.065 Z" style="fill: rgb(255, 255, 255);"/>
  <path d="M 92.102 53.85 L 93.73 53.85 L 93.73 58.441 L 97.089 53.85 L 98.633 53.85 L 98.633 60.904 L 97.006 60.904 L 97.006 56.312 L 93.646 60.904 L 92.102 60.904 L 92.102 53.85 Z" style="fill: rgb(255, 255, 255);"/>
  <path d="M 59.966 16.455 L 59.966 19.272 L 58.463 19.272 L 58.463 17.79 L 52.578 17.79 L 52.578 10.737 L 54.206 10.737 L 54.206 16.455 L 57.336 16.455 L 57.336 10.737 L 58.964 10.737 L 58.964 16.455 L 59.966 16.455 Z" style="fill: rgb(255, 255, 255);"/>
  <path d="M 66.33 16.475 L 66.33 17.79 L 60.883 17.79 L 60.883 10.737 L 66.205 10.737 L 66.205 12.051 L 62.49 12.051 L 62.49 13.575 L 65.766 13.575 L 65.766 14.848 L 62.49 14.848 L 62.49 16.475 L 66.33 16.475 Z" style="fill: rgb(255, 255, 255);"/>
  <path d="M 73.968 10.737 L 73.968 17.79 L 72.34 17.79 L 72.34 14.889 L 69.127 14.889 L 69.127 17.79 L 67.499 17.79 L 67.499 10.737 L 69.127 10.737 L 69.127 13.513 L 72.34 13.513 L 72.34 10.737 L 73.968 10.737 Z" style="fill: rgb(255, 255, 255);"/>
  <path d="M 80.917 12.073 L 78.663 12.073 L 78.663 17.79 L 77.056 17.79 L 77.056 12.073 L 74.802 12.073 L 74.802 10.737 L 80.917 10.737 L 80.917 12.073 Z" style="fill: rgb(255, 255, 255);"/>
  <path d="M 85.841 14.201 C 86.092 13.992 86.216 13.679 86.216 13.303 C 86.216 12.907 86.092 12.594 85.841 12.385 C 85.59 12.177 85.215 12.073 84.714 12.073 L 83.378 12.073 L 83.378 14.514 L 84.714 14.514 C 85.215 14.514 85.59 14.409 85.841 14.201 Z M 86.446 11.05 C 86.906 11.259 87.26 11.551 87.51 11.927 C 87.761 12.302 87.886 12.761 87.886 13.283 C 87.886 13.805 87.761 14.243 87.51 14.639 C 87.26 15.035 86.906 15.328 86.446 15.515 C 85.987 15.724 85.444 15.829 84.818 15.829 L 83.399 15.829 L 83.399 17.79 L 81.751 17.79 L 81.751 10.737 L 84.798 10.737 C 85.424 10.737 85.966 10.841 86.446 11.05 Z" style="fill: rgb(255, 255, 255);"/>
  <path d="M 33.129 16.183 L 38.91 16.183 L 38.91 10.382 L 33.129 10.382 L 33.129 16.183 Z M 40.308 17.561 L 31.731 17.561 L 31.731 9.005 L 40.308 9.005 L 40.308 17.561 Z" style="fill: rgb(255, 255, 255);"/>
  <path d="M 30.917 16.705 L 30.917 16.183 L 29.394 16.183 L 29.394 9.005 L 27.995 9.005 L 27.995 10.695 L 27.995 16.183 L 26.451 16.183 L 22.215 16.183 L 22.215 10.382 L 22.215 9.005 L 20.817 9.005 L 20.817 17.561 L 26.451 17.561 L 29.394 17.561 L 29.54 17.561 L 29.54 18.771 L 30.917 18.771 L 30.917 16.705 Z" style="fill: rgb(255, 255, 255);"/>
  <path d="M 20.817 28.141 L 22.215 28.141 L 22.215 26.951 L 22.215 21.15 L 27.995 21.15 L 27.995 26.513 L 27.995 28.141 L 29.394 28.141 L 29.394 19.773 L 20.817 19.773 L 20.817 28.141 Z" style="fill: rgb(255, 255, 255);"/>
  <path d="M 40.308 19.773 L 31.731 19.773 L 31.731 28.141 L 33.129 28.141 L 33.129 26.513 L 33.129 21.15 L 38.91 21.15 L 38.91 26.513 L 38.93 26.513 L 38.93 28.141 L 40.308 28.141 L 40.308 19.773 Z" style="fill: rgb(255, 255, 255);"/>
</svg>